# xmcd CD database file
#
# Track frame offsets:
#	150
#	18306
#	33526
#	50386
#	94476
#	111637
#	140253
#	154527
#	173658
#	193108
#	209032
#	242659
#	264138
#	294618
#	320691
#
# Disc length: 4677 seconds
#
# Revision: 0
# Processed by: cddbd v1.5.2PL0 Copyright (c) Steve Scherf et al.
# Submitted via: CDex 2.14
#
DISCID=dc12430f
DTITLE=Eric Clapton - Further On Up The Crossroads CD4
DYEAR=1993
DGENRE=Blues
TTITLE0=Knock On Wood (live)
TTITLE1=You Don't Know What I Know (live)
TTITLE2=Lady From Verona (unreleased)
TTITLE3=Same Old Blues (live)
TTITLE4=Phone Booth (flexi)
TTITLE5=After Midnight (complete unedited version)
TTITLE6=Training Jam #1 (unreleased)
TTITLE7=Training Jam #2 (unreleased)
TTITLE8=Keep A-Knockin' (R&R Hall Of Fame)
TTITLE9=Communion (unreleased title music)
TTITLE10=Breaking Point (live)
TTITLE11=No Alibis (Saturday Night Live)
TTITLE12=Wonderful Tonight (Saturday Night Live)
TTITLE13=Before You Accuse Me (The Elvis Awards)
TTITLE14=Sweet Home Chicago (The Elvis Awards)
EXTD=YEAR: 1993
EXTT0=
EXTT1=
EXTT2=
EXTT3=
EXTT4=
EXTT5=
EXTT6=
EXTT7=
EXTT8=
EXTT9=
EXTT10=
EXTT11=
EXTT12=
EXTT13=
EXTT14=
PLAYORDER=
